<svg width="384" height="512" viewBox="0 0 384 512" fill="none" xmlns="http://www.w3.org/2000/svg">
<g clip-path="url(#clip0_55_18)">
<path d="M64 0C28.7 0 0 28.7 0 64V448C0 483.3 28.7 512 64 512H320C355.3 512 384 483.3 384 448V64C384 28.7 355.3 0 320 0H64ZM96 64H288C305.7 64 320 78.3 320 96V128C320 145.7 305.7 160 288 160H96C78.3 160 64 145.7 64 128V96C64 78.3 78.3 64 96 64ZM128 224C128 232.487 124.629 240.626 118.627 246.627C112.626 252.629 104.487 256 96 256C87.5131 256 79.3737 252.629 73.3726 246.627C67.3714 240.626 64 232.487 64 224C64 215.513 67.3714 207.374 73.3726 201.373C79.3737 195.371 87.5131 192 96 192C104.487 192 112.626 195.371 118.627 201.373C124.629 207.374 128 215.513 128 224ZM96 352C87.5131 352 79.3737 348.629 73.3726 342.627C67.3714 336.626 64 328.487 64 320C64 311.513 67.3714 303.374 73.3726 297.373C79.3737 291.371 87.5131 288 96 288C104.487 288 112.626 291.371 118.627 297.373C124.629 303.374 128 311.513 128 320C128 328.487 124.629 336.626 118.627 342.627C112.626 348.629 104.487 352 96 352ZM64 416C64 398.3 78.3 384 96 384H192C209.7 384 224 398.3 224 416C224 433.7 209.7 448 192 448H96C78.3 448 64 433.7 64 416ZM192 256C183.513 256 175.374 252.629 169.373 246.627C163.371 240.626 160 232.487 160 224C160 215.513 163.371 207.374 169.373 201.373C175.374 195.371 183.513 192 192 192C200.487 192 208.626 195.371 214.627 201.373C220.629 207.374 224 215.513 224 224C224 232.487 220.629 240.626 214.627 246.627C208.626 252.629 200.487 256 192 256ZM224 320C224 328.487 220.629 336.626 214.627 342.627C208.626 348.629 200.487 352 192 352C183.513 352 175.374 348.629 169.373 342.627C163.371 336.626 160 328.487 160 320C160 311.513 163.371 303.374 169.373 297.373C175.374 291.371 183.513 288 192 288C200.487 288 208.626 291.371 214.627 297.373C220.629 303.374 224 311.513 224 320ZM288 256C279.513 256 271.374 252.629 265.373 246.627C259.371 240.626 256 232.487 256 224C256 215.513 259.371 207.374 265.373 201.373C271.374 195.371 279.513 192 288 192C296.487 192 304.626 195.371 310.627 201.373C316.629 207.374 320 215.513 320 224C320 232.487 316.629 240.626 310.627 246.627C304.626 252.629 296.487 256 288 256ZM320 320C320 328.487 316.629 336.626 310.627 342.627C304.626 348.629 296.487 352 288 352C279.513 352 271.374 348.629 265.373 342.627C259.371 336.626 256 328.487 256 320C256 311.513 259.371 303.374 265.373 297.373C271.374 291.371 279.513 288 288 288C296.487 288 304.626 291.371 310.627 297.373C316.629 303.374 320 311.513 320 320ZM288 448C279.513 448 271.374 444.629 265.373 438.627C259.371 432.626 256 424.487 256 416C256 407.513 259.371 399.374 265.373 393.373C271.374 387.371 279.513 384 288 384C296.487 384 304.626 387.371 310.627 393.373C316.629 399.374 320 407.513 320 416C320 424.487 316.629 432.626 310.627 438.627C304.626 444.629 296.487 448 288 448Z" fill="black"/>
</g>
<defs>
<clipPath id="clip0_55_18">
<rect width="384" height="512" fill="white"/>
</clipPath>
</defs>
</svg>
