<svg width="629" height="629" viewBox="0 0 629 629" fill="none" xmlns="http://www.w3.org/2000/svg">
<g clip-path="url(#clip0_59_26)">
<path d="M560.829 314.572C560.829 329.971 547.99 342.033 533.44 342.033H506.051L506.65 479.079C506.65 481.389 506.479 483.698 506.222 486.008V499.781C506.222 518.687 490.902 534 471.986 534H458.292C457.35 534 456.409 534 455.467 533.914C454.269 534 453.071 534 451.872 534H424.056H403.514C384.598 534 369.278 518.687 369.278 499.781V479.25V424.5C369.278 409.358 357.038 397.125 341.889 397.125H287.111C271.962 397.125 259.722 409.358 259.722 424.5V479.25V499.781C259.722 518.687 244.402 534 225.486 534H204.944H177.641C176.357 534 175.073 533.914 173.79 533.829C172.762 533.914 171.735 534 170.708 534H157.014C138.098 534 122.778 518.687 122.778 499.781V403.969C122.778 403.199 122.778 402.343 122.863 401.573V342.033H95.3889C79.9826 342.033 68 330.056 68 314.572C68 306.873 70.5677 300.029 76.559 294.041L296.012 102.844C302.004 96.8555 308.851 96 314.842 96C320.834 96 327.681 97.7109 332.816 101.988L551.414 294.041C558.261 300.029 561.685 306.873 560.829 314.572Z" fill="black"/>
</g>
<defs>
<clipPath id="clip0_59_26">
<rect width="493" height="438" fill="white" transform="translate(68 96)"/>
</clipPath>
</defs>
</svg>
