<svg width="629" height="629" viewBox="0 0 629 629" fill="none" xmlns="http://www.w3.org/2000/svg">
<g clip-path="url(#clip0_59_32)">
<path d="M314.5 315C343.522 315 371.356 303.463 391.878 282.928C412.4 262.393 423.929 234.541 423.929 205.5C423.929 176.459 412.4 148.607 391.878 128.072C371.356 107.537 343.522 96 314.5 96C285.478 96 257.644 107.537 237.122 128.072C216.6 148.607 205.071 176.459 205.071 205.5C205.071 234.541 216.6 262.393 237.122 282.928C257.644 303.463 285.478 315 314.5 315ZM275.431 356.062C191.222 356.062 123 424.329 123 508.593C123 522.622 134.37 534 148.391 534H480.609C494.63 534 506 522.622 506 508.593C506 424.329 437.778 356.062 353.569 356.062H275.431Z" fill="black"/>
</g>
<defs>
<clipPath id="clip0_59_32">
<rect width="383" height="438" fill="white" transform="translate(123 96)"/>
</clipPath>
</defs>
</svg>
